<?xml version="1.0" standalone="yes"?>
<svg xmlns="http://www.w3.org/2000/svg" width="200" height="200">
<path style="fill:#ffffff; stroke:none;" d="M0 0L0 200L200 200L200 0L0 0z"/>
<path style="fill:#4c96d7; stroke:none;" d="M82 135C79.7929 139.392 78.4276 144.096 78 149L75 149L75 145C72.7257 146.402 72.0127 147.515 71 150C67.9167 149.509 65.1042 149.781 62 150L62 133L66 132C62.7341 129.526 58.9899 130 55 130C55.4824 132.364 55.636 132.518 58 133C58 140.701 58.1044 145.492 54 152L84 152C82.0562 147.525 81.2951 144.909 87 144C87.0131 146.809 86.64 149.267 86 152L95 152C93.3247 146.81 90.2739 141.136 88 136L96 136C95.315 142.478 95.5196 151.18 104.001 151.823C107.061 152.055 110.092 150.769 113 150L113 143C110.192 144.008 108.151 148.312 105 147.963C99.4031 147.342 98.9091 138.493 103.147 135.917C106.544 133.852 109.807 137.027 113 138L113 131C115.082 132.098 116.67 132.685 119 133C119 140.701 119.104 145.492 115 152C121.794 152 134.296 155.041 135 146C129.138 148.438 122.698 152.137 122 143C124.56 143.667 126.625 144.853 129 146C129.562 142.975 129.936 140.078 130 137C127.636 137.482 127.482 137.636 127 140L123 140L122 133C126.566 133.148 129.064 135.045 133 137L133 131L115 131L124 124C117.515 115.71 106.648 127.886 98 128.826C81.6953 130.599 66.483 123.093 57.9267 109C44.1327 86.2799 59.0207 55.3354 85 50.4676C99.7382 47.7061 110.973 54.0518 122 63C124.447 61.1641 125.701 59.7633 127 57C117.094 50.111 108.632 43.5974 96 43.0394C80.3649 42.3487 64.2858 47.8856 54.7855 61C35.887 87.088 48.4567 129.224 82 135z"/>
<path style="fill:#74d14c; stroke:none;" d="M128 83C119.082 82.2962 110.925 81.8721 102 83C102.003 87.659 101.674 93.4551 103.588 97.8156C105.693 102.612 109.79 103.865 108.851 109.985C108.11 114.815 103.268 116.993 99 118.211C88.9539 121.079 78.7273 118.041 71.0903 111.242C53.2598 95.3686 59.6794 67.4926 82 59.5486C91.4584 56.1824 99.2937 59.381 108 63C105.724 67.0634 103.831 71.6075 106.742 75.9421C110.912 82.1506 121.416 81.7485 123.566 73.9846C126.883 62.0031 108.124 53.9901 99 52.0147C79.047 47.6948 56.7498 60.8456 54.1844 82C53.0794 91.1115 54.1156 101.134 59.1327 109C71.7872 128.841 102.125 131.806 119.397 115.879C122.238 113.258 120.424 108.439 121.317 105.093C122.127 102.06 125.054 100.608 126.259 97.8156C128.075 93.6095 127.963 87.5267 128 83z"/>
<path style="fill:#ffffff; stroke:none;" d="M73 54C74.9433 54.6218 75.949 54.4358 78 54C76.0567 53.3782 75.051 53.5642 73 54M72 55L73 56L72 55M70.6667 56.3333C70.2222 56.7778 71.2778 56.7222 71.3333 56.6667C71.7777 56.2223 70.7223 56.2777 70.6667 56.3333M69 57L70 58L69 57M67.6667 58.3333C67.2222 58.7778 68.2778 58.7222 68.3333 58.6667C68.7778 58.2222 67.7222 58.2778 67.6667 58.3333M66 59L67 60L66 59M65 60L66 61L65 60M64 61L65 62L64 61M63 62L64 63L63 62z"/>
<path style="fill:#00ff00; stroke:none;" d="M119 62L120 63L119 62z"/>
<path style="fill:#ffffff; stroke:none;" d="M62 63L63 64L62 63M61 64L62 65L61 64M60.3333 65.6667C60.2777 65.7223 60.2222 66.7778 60.6667 66.3333C60.7222 66.2778 60.7778 65.2222 60.3333 65.6667z"/>
<path style="fill:#6d6e71; stroke:none;" d="M107 79C105.65 74.0392 104.701 70.1851 105 65C102.306 65.0651 99.4927 65.0249 97.2284 66.7423C93.0613 69.9028 93.468 76.9531 98.2137 79.3881C101.142 80.8904 104.123 80.0161 107 79M124 65C124.429 67.3186 124.972 69.6289 124.702 72.0015C124.476 73.9887 123.049 76.5436 124.157 78.4715C125.827 81.3781 130.671 80.1773 132.696 78.4321C137.126 74.6131 135.332 67.2667 129.961 65.5139C128.062 64.8942 125.966 65.0219 124 65z"/>
<path style="fill:#000000; stroke:none;" d="M132 66L133 67L132 66z"/>
<path style="fill:#ffffff; stroke:none;" d="M59 67L60 68L59 67M124 67L124 75C125.161 72.2302 125.161 69.7698 124 67M58 69L59 70L58 69M104 69L104 72C104.696 70.4463 104.696 70.5537 104 69M57 70L58 71L57 70M56.3333 72.6667C56.2778 72.7222 56.2222 73.7778 56.6667 73.3333C56.7223 73.2777 56.7777 72.2222 56.3333 72.6667M55 74L55 77C55.6961 75.4463 55.6961 75.5537 55 74M105 74L106 75L105 74M123 75L124 76L123 75M106 76L107 77L106 76M54 77L54 80C54.6961 78.4463 54.6961 78.5537 54 77z"/>
<path style="fill:#00ff00; stroke:none;" d="M107 77L108 78L107 77z"/>
<path style="fill:#ffffff; stroke:none;" d="M122 77L123 78L122 77z"/>
<path style="fill:#000000; stroke:none;" d="M122 78L123 79L122 78M102 80L103 81L102 80z"/>
<path style="fill:#6d6e71; stroke:none;" d="M90 83C90.5374 87.2483 90.8071 91.9189 92.1435 96C93.0589 98.7952 95.0127 101.121 95.6867 104C96.2546 106.425 95.5191 109.408 97.0278 111.562C99.0547 114.457 103.939 113.849 105.397 110.721C108.578 103.892 102.41 97.4429 101.429 91C101.067 88.6233 101.527 84.6779 99.3966 83.0316C97.0106 81.1876 92.6888 82.6605 90 83z"/>
<path style="fill:#00ff00; stroke:none;" d="M123 82L124 83L123 82z"/>
<path style="fill:#6d6e71; stroke:none;" d="M129 82C128.674 86.1349 128.595 91.0094 127.427 94.9853C126.496 98.1585 123.736 100.077 122.599 103.09C121.47 106.08 122 109.858 122 113C124.7 113.477 128.143 114.42 130.397 112.254C133.017 109.736 131.459 105.297 132.584 102.17C135.463 94.1687 141.792 83.774 129 82z"/>
<path style="fill:#ffffff; stroke:none;" d="M127 90L127 96C127.951 93.7148 127.951 92.2853 127 90M102 92L102 98C102.951 95.7148 102.951 94.2853 102 92M126 98L127 99L126 98z"/>
<path style="fill:#000000; stroke:none;" d="M132 100L133 101L132 100z"/>
<path style="fill:#00ff00; stroke:none;" d="M108 102L109 103L108 102z"/>
<path style="fill:#4c96d7; stroke:none;" d="M37 133C42.2509 136.389 40.8204 145.953 37 150C40.0398 152.303 43.2675 151.997 47 152C45.5977 148.867 44.2559 146.487 44 143C49.7776 144.395 55.6129 139.358 51.8202 133.279C48.9387 128.66 39.7486 128.76 37 133M137 130C137.482 132.364 137.636 132.518 140 133C140 140.701 140.104 145.492 136 152L157 152L157 145C154.726 146.402 154.013 147.515 153 150C149.917 149.509 147.104 149.781 144 150L144 133L148 132C144.734 129.526 140.99 130 137 130z"/>
<path style="fill:#ffffff; stroke:none;" d="M45 133C44.1898 135.729 44.0209 138.15 44 141C48.952 139.495 49.6356 135.566 45 133z"/>
<path style="fill:#00ffff; stroke:none;" d="M52 133L53 134L52 133z"/>
<path style="fill:#ffffff; stroke:none;" d="M84 137C83.254 139.946 82.8029 141.311 86 142C85.5196 140.04 85.0623 138.693 84 137z"/>
<path style="fill:#00ffff; stroke:none;" d="M95 139L96 140L95 139M52 140L53 141L52 140M108 147L109 148L108 147M66 149L67 150L66 149M70 149L71 150L70 149M126 149L127 150L126 149M148 149L149 150L148 149z"/>
</svg>
