<?xml version="1.0" encoding="UTF-8" standalone="no"?>
<!-- Created with Inkscape (http://www.inkscape.org/) -->

<svg
   xmlns:dc="http://purl.org/dc/elements/1.1/"
   xmlns:cc="http://creativecommons.org/ns#"
   xmlns:rdf="http://www.w3.org/1999/02/22-rdf-syntax-ns#"
   xmlns:svg="http://www.w3.org/2000/svg"
   xmlns="http://www.w3.org/2000/svg"
   xmlns:sodipodi="http://sodipodi.sourceforge.net/DTD/sodipodi-0.dtd"
   xmlns:inkscape="http://www.inkscape.org/namespaces/inkscape"
   width="40"
   height="30"
   viewBox="0 0 10.583333 7.9375002"
   version="1.1"
   id="svg3762"
   inkscape:version="0.92.1 r15371"
   sodipodi:docname="placel.svg">
  <defs
     id="defs3756" />
  <sodipodi:namedview
     id="base"
     pagecolor="#ffffff"
     bordercolor="#666666"
     borderopacity="1.0"
     inkscape:pageopacity="1"
     inkscape:pageshadow="2"
     inkscape:zoom="15.839192"
     inkscape:cx="14.551746"
     inkscape:cy="12.891142"
     inkscape:document-units="mm"
     inkscape:current-layer="layer1"
     showgrid="false"
     inkscape:snap-page="true"
     units="px"
     inkscape:pagecheckerboard="false"
     showborder="false"
     borderlayer="false"
     inkscape:showpageshadow="false"
     showguides="true"
     inkscape:window-width="1680"
     inkscape:window-height="987"
     inkscape:window-x="-8"
     inkscape:window-y="-8"
     inkscape:window-maximized="1" />
  <metadata
     id="metadata3759">
    <rdf:RDF>
      <cc:Work
         rdf:about="">
        <dc:format>image/svg+xml</dc:format>
        <dc:type
           rdf:resource="http://purl.org/dc/dcmitype/StillImage" />
        <dc:title></dc:title>
      </cc:Work>
    </rdf:RDF>
  </metadata>
  <g
     inkscape:label="Capa 1"
     inkscape:groupmode="layer"
     id="layer1"
     transform="translate(0,-289.06248)">
    <path
       id="path4"
       style="fill:#00ffff;stroke:none;stroke-width:0.08205304"
       d="m 6.5747163,289.78149 c -1.3413936,-0.0544 -2.7207984,0.37983 -3.5358632,1.40897 -1.621374,2.04727 -0.5434694,5.35399 2.3343331,5.80727 -6.674e-4,0.001 -0.00121,0.002 -0.00179,0.003 0.00709,-0.004 0.013101,-0.009 0.024292,-0.01 v 0.002 c 0.014097,-0.002 0.031627,-0.004 0.04799,-0.002 0.011557,0.001 0.019923,0.01 0.028439,0.0177 7.887e-4,5e-5 0.00158,-8e-5 0.00237,0 0.00333,3.1e-4 0.0068,0.002 0.010073,0.002 0.011821,0.002 0.011569,-0.002 0.027252,0.007 0.00416,0.002 0.00773,0.006 0.011257,0.009 0.00167,10e-4 0.0036,0.003 0.00534,0.004 9.101e-4,5.7e-4 0.00322,0.002 0.00237,10e-4 -0.00172,-10e-4 -0.0033,-0.003 -0.00534,-0.004 0.011139,9.7e-4 0.021443,0.003 0.032586,0.004 0.013123,-10e-4 0.024646,0.01 0.037325,0.008 0.0021,-2.5e-4 0.00445,-10e-4 0.00652,-10e-4 0.021895,0.003 0.030183,0.0111 0.051545,0.009 0.015518,-0.002 0.031751,-0.001 0.047397,-0.001 0.015501,8e-5 0.030712,-4e-5 0.046212,0 0.016675,4e-5 0.033093,0 0.049767,0 h 0.042657 c -0.00131,-0.007 0.033776,0.0122 0.033771,0.01 -6.1e-6,-0.002 -0.00903,-6e-4 0.00534,-0.002 0.030046,-0.004 0.046681,0.008 0.051545,0.0233 H 6.574701 c -4.52e-5,3.8e-4 4.48e-5,8.4e-4 0,0.001 0.020658,-5.3e-4 0.037129,-8.8e-4 0.061617,-6.3e-4 0.080312,0.002 0.160804,10e-4 0.2411355,10e-4 0.032186,-10e-4 0.064383,0.001 0.096572,0 0.01446,-5.4e-4 0.028817,-0.002 0.04325,-0.003 0.016914,-10e-4 0.034096,-10e-4 0.050953,-0.003 0.042956,-0.004 0.061865,-0.009 0.1030893,-0.0184 0.022984,-0.004 0.046205,-0.002 0.069318,-0.003 0.00179,-7e-4 0.00357,-8.2e-4 0.00534,-10e-4 0.00131,-0.039 0.017782,-0.074 0.033178,-0.0496 0.00725,-0.004 0.010782,-0.01 0.021328,-0.0129 v -0.007 c 0.036962,-0.01 0.071491,-0.0213 0.1072374,-0.0196 0.010597,-0.0114 0.013584,-0.0158 0.039696,-0.0264 0.012328,-0.006 0.02607,-0.004 0.039103,-0.007 0.00261,-4.3e-4 -0.00947,0.002 -0.00829,0 0.00152,-0.003 0.024956,-0.009 0.02903,-0.01 0.020603,-8.1e-4 0.017625,-4.9e-4 0.029625,6.3e-4 2.215e-4,-0.001 0.00421,-0.003 0.00652,-0.003 0.00276,-7.2e-4 0.00557,-0.001 0.00829,-0.002 0.00943,-0.003 0.014485,-0.01 0.026661,-0.0123 -0.00261,0.002 -0.00179,0.001 0.00237,0 0.042853,-0.0135 0.00672,-3.5e-4 0.050953,-0.0177 0.016041,-0.004 0.020248,-0.008 0.025475,-0.01 0.01004,-0.004 0.019827,-0.01 0.024292,-0.0116 0.01989,-0.004 0.022939,-0.004 0.039696,-0.003 h 6.068e-4 l 6.067e-4,-6.3e-4 c 0.00152,-0.001 0.00324,-0.003 0.00356,-0.003 0.00561,-0.003 0.011047,-0.008 0.017182,-0.009 0.010368,-0.003 0.021341,-0.004 0.031993,-0.008 0.00264,-6.3e-4 0.00549,-10e-4 0.0077,-0.002 7.28e-4,-5.3e-4 -0.003,-10e-4 -0.00237,-10e-4 0.00411,-0.004 0.011236,-0.006 0.018368,-0.009 0.017197,-0.0199 0.037851,-0.0319 0.063987,-0.0318 0.00222,-0.003 0.00387,-0.008 0.00652,-0.01 0.011075,-0.0133 0.031478,-0.0277 0.047397,-0.0337 0.009,-0.003 0.018486,-0.003 0.027847,-0.006 0.031123,0.003 0.00978,3.4e-4 0.00652,0 0.00931,-0.007 0.019696,-0.0111 0.029625,-0.016 0.032571,-8.8e-4 0.01581,-0.002 0.040288,10e-4 0.00312,4.5e-4 0.012619,4.1e-4 0.00948,6.3e-4 -0.028545,0.002 -0.0072,-0.007 0.00297,-0.0111 v -0.0349 c 0.021808,0.0111 0.041206,0.017 0.061025,0.0245 0.00186,1.6e-4 0.00346,-8.8e-4 0.00534,-6.4e-4 0.00371,4.8e-4 0.00681,10e-4 0.010073,0.002 0.00203,-0.001 0.00411,-0.003 0.00652,-0.003 0.00501,-0.002 0.010269,-0.003 0.015404,-0.004 0.00285,-9.8e-4 0.00554,-0.002 0.00829,-0.003 0.00261,-10e-4 -0.010564,0.003 -0.00829,0.002 0.00335,-0.002 0.00799,-0.003 0.011848,-0.004 0.00179,-2.6e-4 0.00351,-4.4e-4 0.00534,-6.3e-4 0.00283,-0.004 0.00547,-0.009 0.00829,-0.0141 0.00392,0.002 0.00744,0.007 0.011257,0.01 0.00503,-10e-4 0.00978,-0.003 0.015404,-0.004 -0.00252,2.2e-4 -0.00865,0.002 -0.00712,6.2e-4 0.00167,-0.002 0.00897,-0.003 0.015996,-0.004 0.00124,-0.002 -0.00116,-0.001 6.067e-4,-0.003 0.00155,-0.002 0.00335,-0.004 0.00474,-0.007 -0.011299,0.006 -0.021646,0.0113 -0.00534,-0.004 0.068223,-0.0285 0.016739,-0.0111 0.013035,-0.008 -0.00332,0.003 -0.00534,0.008 -0.0077,0.0116 0.00602,-0.002 0.012962,-0.007 0.014812,-0.003 7.584e-4,10e-4 0.00246,0.004 0.00356,0.007 l 0.7601398,-0.54046 c -0.5563684,-0.65064 -1.4887063,0.30509 -2.2306511,0.37887 -1.3988412,0.13909 -2.7034346,-0.44991 -3.437513,-1.55586 -1.1834391,-1.78298 0.093632,-4.21157 2.3224839,-4.59355 1.2644449,-0.21672 2.2284147,0.28138 3.1744559,0.98359 0.2099516,-0.14414 0.3175032,-0.25445 0.4289488,-0.47129 -0.8498725,-0.54061 -1.5758522,-1.0512 -2.6595995,-1.09499 z m 1.658917,6.90225 c -9.403e-4,0.002 -0.00112,0.004 -0.00179,0.007 0.00188,-0.002 0.00359,-0.004 0.00712,-0.007 z m -0.8045749,0.27543 c 1.366e-4,1.6e-4 -0.00361,0.001 -0.00356,0.002 0.00338,8.7e-4 0.00664,-7e-4 0.010073,6.2e-4 8e-6,-3.1e-4 -0.00697,-0.003 -0.00652,-0.002 z m -1.9995875,0.49822 c 4.12e-5,0.004 -3.09e-5,0.01 6.068e-4,0.0147 3.943e-4,-4e-5 7.887e-4,5e-5 0.00118,0 6.46e-5,-0.004 4.853e-4,-0.01 0.00118,-0.0147 -9.707e-4,-10e-6 -0.002,1e-5 -0.00297,0 z m -2.0209163,0.0306 c -0.00578,0.006 -0.00957,0.0137 -0.014218,0.0208 0.00291,-10e-4 0.00628,-0.002 0.00888,-0.003 0.00469,-0.003 0.0094,-0.0214 0.00534,-0.0172 z m -0.00652,0.1114 c -0.00116,-2.1e-4 5.5e-6,0.002 6.068e-4,0.003 0.001,1.7e-4 0.00198,4.8e-4 0.00297,6.3e-4 -5.46e-4,-0.001 -0.00118,-0.002 -0.00179,-0.003 -6.673e-4,-2.2e-4 -0.00106,-10e-4 -0.00179,-10e-4 z m 2.3959504,0.17811 -6.067e-4,6.3e-4 c 0.022317,0 0.044632,-10e-6 0.066949,0 -0.022105,-3.8e-4 -0.044238,-8e-5 -0.066357,-6.3e-4 z m 4.116484,0.11568 c -0.00493,0.001 -0.00987,0.002 -0.014812,0.003 0.00474,0 0.00948,0 0.014218,0 2.105e-4,-0.001 3.943e-4,-0.002 6.067e-4,-0.003 z"
       inkscape:connector-curvature="0" />
    <path
       inkscape:connector-curvature="0"
       style="fill:#74d14c;stroke:none;stroke-width:0.08205304"
       d="m 9.3199908,292.91713 c -0.7651087,-0.0553 -1.464929,-0.0885 -2.2306364,0 2.567e-4,0.3656 -0.027965,0.82046 0.13623,1.16267 0.1805946,0.3764 0.5320918,0.47471 0.4515311,0.95501 -0.063568,0.37902 -0.478986,0.54994 -0.8451542,0.64552 -0.861894,0.22506 -1.7392706,-0.0141 -2.3944764,-0.54689 -1.529746,-1.24568 -0.9789844,-3.43325 0.9359825,-4.05667 0.8114732,-0.26415 1.483692,-0.0127 2.2306391,0.27083 -0.1952683,0.31889 -0.3576756,0.67549 -0.1079217,1.01564 0.3577594,0.48722 1.2589371,0.45567 1.4433942,-0.15359 0.2845773,-0.94026 -1.3248269,-1.56908 -2.1076091,-1.7241 -1.7118432,-0.33901 -3.624802,0.69299 -3.8448977,2.3531 -0.094789,0.71504 -0.00576,1.50155 0.4245339,2.11885 1.0856759,1.55702 3.6884695,1.78969 5.1702987,0.53984 0.2437399,-0.20569 0.0881,-0.58386 0.1647244,-0.84645 0.069489,-0.23801 0.3206128,-0.35197 0.4239912,-0.57109 0.1558032,-0.33008 0.1461925,-0.80743 0.1493704,-1.16267 z"
       id="path6" />
    <path
       inkscape:connector-curvature="0"
       style="fill:#ffffff;stroke:none;stroke-width:0.08205304"
       d="m 4.6013359,290.64133 c 0.1667229,0.0486 0.2530047,0.0341 0.4289689,0 -0.1667229,-0.0486 -0.2530073,-0.0341 -0.4289689,0 m -0.085794,0.0785 0.085794,0.0784 -0.085794,-0.0784 m -0.1143771,0.10457 c -0.038144,0.0348 0.052429,0.0305 0.057194,0.026 0.038131,-0.0348 -0.052428,-0.0305 -0.057194,-0.026 m -0.142992,0.0524 0.085794,0.0785 -0.085794,-0.0785 m -0.1143771,0.10456 c -0.038144,0.0347 0.052428,0.0305 0.057194,0.026 0.038144,-0.0351 -0.052429,-0.0305 -0.057194,-0.026 m -0.142992,0.0524 0.085794,0.0785 -0.085794,-0.0785 m -0.085794,0.0785 0.085794,0.0784 -0.085794,-0.0784 m -0.085794,0.0784 0.085794,0.0785 -0.085794,-0.0785 m -0.085794,0.0785 0.085794,0.0785 z"
       id="path8" />
    <path
       inkscape:connector-curvature="0"
       style="fill:#00ff00;stroke:none;stroke-width:0.08205304"
       d="m 8.5478482,291.26915 0.085794,0.0785 z"
       id="path10" />
    <path
       inkscape:connector-curvature="0"
       style="fill:#ffffff;stroke:none;stroke-width:0.08205304"
       d="m 3.6576039,291.3476 0.085794,0.0784 -0.085794,-0.0784 m -0.085794,0.0784 0.085794,0.0785 -0.085794,-0.0785 m -0.057194,0.13084 c -0.0048,0.003 -0.0096,0.0873 0.028611,0.0524 0.00467,-0.003 0.0096,-0.0873 -0.028611,-0.0524 z"
       id="path12" />
    <path
       inkscape:connector-curvature="0"
       style="fill:#ffffff;stroke:none;stroke-width:0.08205304"
       d="m 7.5183234,292.60323 c -0.1158183,-0.38931 -0.1972407,-0.69175 -0.1715895,-1.09864 -0.2311278,0.003 -0.4724904,0.002 -0.6667533,0.1367 -0.3575107,0.24804 -0.3226195,0.80131 0.084542,0.9924 0.2512286,0.11797 0.5069805,0.0492 0.7538081,-0.0305 m 1.4584937,-1.09867 c 0.036798,0.18196 0.083389,0.36327 0.060218,0.54943 -0.019395,0.15597 -0.1418149,0.35645 -0.046757,0.50773 0.1432763,0.22811 0.55886,0.13391 0.7325936,-0.002 0.380064,-0.29971 0.2261516,-0.87622 -0.2346471,-1.01376 -0.1629221,-0.0486 -0.342745,-0.0387 -0.5114157,-0.0403 z"
       id="path14" />
    <path
       inkscape:connector-curvature="0"
       style="fill:#000000;stroke:none;stroke-width:0.08205304"
       d="m 9.6631657,291.58304 0.085794,0.0785 z"
       id="path16" />
    <path
       inkscape:connector-curvature="0"
       style="fill:#ffffff;stroke:none;stroke-width:0.08205304"
       d="m 3.400223,291.66153 0.085794,0.0785 -0.085794,-0.0785 m 5.5765941,0 v 0.6278 c 0.09961,-0.21736 0.09961,-0.41045 0,-0.6278 m -5.6623881,0.15694 0.085794,0.0785 -0.085794,-0.0785 m 3.9465123,0 v 0.23544 c 0.059722,-0.12194 0.059722,-0.11346 0,-0.23544 m -4.0323065,0.0785 0.085794,0.0785 -0.085794,-0.0785 m -0.057194,0.20928 c -0.00467,0.003 -0.0096,0.0872 0.028611,0.0524 0.0048,-0.003 0.0096,-0.0873 -0.028611,-0.0524 m -0.1143771,0.10456 v 0.23543 c 0.059722,-0.12192 0.059722,-0.11346 0,-0.23543 m 4.2896858,0 0.085794,0.0784 -0.085794,-0.0784 m 1.5442878,0.0784 0.085794,0.0785 -0.085794,-0.0785 m -1.4584937,0.0785 0.085794,0.0785 -0.085794,-0.0785 m -4.4612741,0.0785 v 0.23544 c 0.059723,-0.12193 0.059723,-0.11347 0,-0.23544 z"
       id="path18" />
    <path
       inkscape:connector-curvature="0"
       style="fill:#00ff00;stroke:none;stroke-width:0.08205304"
       d="m 7.5183234,292.44627 0.085793,0.0785 z"
       id="path20" />
    <path
       inkscape:connector-curvature="0"
       style="fill:#ffffff;stroke:none;stroke-width:0.08205304"
       d="m 8.8052277,292.44627 0.085794,0.0785 z"
       id="path22" />
    <path
       inkscape:connector-curvature="0"
       style="fill:#000000;stroke:none;stroke-width:0.08205304"
       d="m 8.8052277,292.52475 0.085794,0.0785 -0.085794,-0.0785 m -1.7158733,0.15695 0.085794,0.0785 z"
       id="path24" />
    <path
       inkscape:connector-curvature="0"
       style="fill:#ffffff;stroke:none;stroke-width:0.08205304"
       d="m 6.0598296,292.91713 c 0.046112,0.33339 0.069242,0.69992 0.1838981,1.02019 0.07854,0.21933 0.2461589,0.40185 0.303983,0.62779 0.048734,0.19032 -0.014367,0.42442 0.115064,0.59343 0.1738957,0.22719 0.5929379,0.17947 0.7180254,-0.066 0.2729104,-0.5359 -0.2562654,-1.04202 -0.3404291,-1.54763 -0.031057,-0.1865 0.00852,-0.49612 -0.1743668,-0.62532 -0.2047034,-0.14471 -0.5754883,-0.029 -0.8061699,-0.002 z"
       id="path26" />
    <path
       inkscape:connector-curvature="0"
       style="fill:#00ff00;stroke:none;stroke-width:0.08205304"
       d="m 8.8910231,292.83865 0.085794,0.0785 z"
       id="path28" />
    <path
       inkscape:connector-curvature="0"
       style="fill:#ffffff;stroke:none;stroke-width:0.08205304"
       d="m 9.4057862,292.83865 c -0.027965,0.32449 -0.03475,0.70701 -0.1349661,1.01904 -0.079874,0.249 -0.316664,0.39956 -0.414213,0.636 -0.096863,0.23464 -0.051385,0.53113 -0.051385,0.7777 0.2316431,0.0374 0.5270306,0.11145 0.7204115,-0.0585 0.224778,-0.19762 0.091109,-0.54597 0.1876301,-0.79137 0.2469994,-0.6279 0.7899893,-1.44363 -0.3074829,-1.58285 z"
       id="path30" />
    <path
       inkscape:connector-curvature="0"
       style="fill:#ffffff;stroke:none;stroke-width:0.08205304"
       d="m 9.2341967,293.46646 v 0.47086 c 0.081589,-0.17934 0.081589,-0.29151 0,-0.47086 m -2.1448423,0.15694 v 0.47085 c 0.081589,-0.17933 0.081589,-0.2915 0,-0.47085 m 2.0590482,0.47085 0.085793,0.0785 z"
       id="path32" />
    <path
       inkscape:connector-curvature="0"
       style="fill:#000000;stroke:none;stroke-width:0.08205304"
       d="m 9.6631657,294.2512 0.085794,0.0785 z"
       id="path34" />
    <path
       inkscape:connector-curvature="0"
       style="fill:#00ff00;stroke:none;stroke-width:0.08205304"
       d="m 7.6041176,294.40817 0.085794,0.0785 z"
       id="path36" />
    <path
       style="fill:#00ffff;fill-opacity:0;stroke-width:0.05505718"
       d="m 5.3879048,296.98653 c -1.2165432,-0.23188 -2.1582599,-0.91827 -2.6792756,-1.95285 -0.2722235,-0.54054 -0.3794355,-1.0057 -0.3804562,-1.65064 -0.00309,-1.95363 1.3532955,-3.31768 3.5296903,-3.54965 1.0912824,-0.1163 1.9255589,0.11963 3.0495192,0.86239 l 0.3133406,0.20708 -0.1800939,0.19195 c -0.099051,0.10556 -0.1992148,0.19196 -0.2225848,0.19196 -0.023369,0 -0.1793727,-0.0905 -0.3466734,-0.20102 -0.9416822,-0.62231 -1.8010778,-0.87297 -2.6222637,-0.76482 -0.422489,0.0556 -1.1817878,0.26868 -1.2466487,0.34977 -0.014898,0.0186 -0.1367761,0.10024 -0.2708436,0.18134 -0.1340678,0.0811 -0.3673951,0.26877 -0.5185057,0.41701 -0.2764661,0.27122 -0.6732062,0.80941 -0.6732062,0.91321 0,0.0307 -0.024377,0.0558 -0.054169,0.0558 -0.029792,0 -0.054169,0.0504 -0.054169,0.11192 0,0.0616 -0.019444,0.11192 -0.043209,0.11192 -0.087521,0 -0.1730045,1.02697 -0.1167544,1.40265 0.2222593,1.48441 1.7531778,2.67859 3.4371709,2.68116 0.5150555,7.9e-4 0.7118659,-0.0492 1.3440912,-0.34103 0.589348,-0.27208 0.874493,-0.32077 1.1176809,-0.19086 0.097823,0.0523 0.1567763,0.11368 0.131008,0.1365 -0.1937472,0.17156 -0.6388229,0.46805 -0.7627254,0.5081 -0.082953,0.0268 -0.3458318,0.12595 -0.5841741,0.22029 -0.4105481,0.1625 -0.4718277,0.1712 -1.1646276,0.16547 -0.4022028,-0.003 -0.8531573,-0.0292 -1.0021215,-0.0577 z"
       id="path4773"
       inkscape:connector-curvature="0" />
    <path
       style="fill:#00ffff;fill-opacity:0;stroke-width:0.05505718"
       d="m 5.3879048,296.98653 c -1.2165432,-0.23188 -2.1582599,-0.91827 -2.6792756,-1.95285 -0.2722235,-0.54054 -0.3794355,-1.0057 -0.3804562,-1.65064 -0.00309,-1.95363 1.3532955,-3.31768 3.5296903,-3.54965 1.0912824,-0.1163 1.9255589,0.11963 3.0495192,0.86239 l 0.3133406,0.20708 -0.1800939,0.19195 c -0.099051,0.10556 -0.1992148,0.19196 -0.2225848,0.19196 -0.023369,0 -0.1793727,-0.0905 -0.3466734,-0.20102 -0.9416822,-0.62231 -1.8010778,-0.87297 -2.6222637,-0.76482 -0.422489,0.0556 -1.1817878,0.26868 -1.2466487,0.34977 -0.014898,0.0186 -0.1367761,0.10024 -0.2708436,0.18134 -0.1340678,0.0811 -0.3673951,0.26877 -0.5185057,0.41701 -0.2764661,0.27122 -0.6732062,0.80941 -0.6732062,0.91321 0,0.0307 -0.024377,0.0558 -0.054169,0.0558 -0.029792,0 -0.054169,0.0504 -0.054169,0.11192 0,0.0616 -0.019444,0.11192 -0.043209,0.11192 -0.087521,0 -0.1730045,1.02697 -0.1167544,1.40265 0.2222593,1.48441 1.7531778,2.67859 3.4371709,2.68116 0.5150555,7.9e-4 0.7118659,-0.0492 1.3440912,-0.34103 0.589348,-0.27208 0.874493,-0.32077 1.1176809,-0.19086 0.097823,0.0523 0.1567763,0.11368 0.131008,0.1365 -0.1937472,0.17156 -0.6388229,0.46805 -0.7627254,0.5081 -0.082953,0.0268 -0.3458318,0.12595 -0.5841741,0.22029 -0.4105481,0.1625 -0.4718277,0.1712 -1.1646276,0.16547 -0.4022028,-0.003 -0.8531573,-0.0292 -1.0021215,-0.0577 z"
       id="path4775"
       inkscape:connector-curvature="0" />
    <path
       style="fill:#00ffff;fill-opacity:0;stroke-width:0.05505718"
       d="m 5.3879048,296.98653 c -1.2165432,-0.23188 -2.1582599,-0.91827 -2.6792756,-1.95285 -0.2722235,-0.54054 -0.3794355,-1.0057 -0.3804562,-1.65064 -0.00309,-1.95363 1.3532955,-3.31768 3.5296903,-3.54965 1.0912824,-0.1163 1.9255589,0.11963 3.0495192,0.86239 l 0.3133406,0.20708 -0.1800939,0.19195 c -0.099051,0.10556 -0.1992148,0.19196 -0.2225848,0.19196 -0.023369,0 -0.1793727,-0.0905 -0.3466734,-0.20102 -0.9416822,-0.62231 -1.8010778,-0.87297 -2.6222637,-0.76482 -0.422489,0.0556 -1.1817878,0.26868 -1.2466487,0.34977 -0.014898,0.0186 -0.1367761,0.10024 -0.2708436,0.18134 -0.1340678,0.0811 -0.3673951,0.26877 -0.5185057,0.41701 -0.2764661,0.27122 -0.6732062,0.80941 -0.6732062,0.91321 0,0.0307 -0.024377,0.0558 -0.054169,0.0558 -0.029792,0 -0.054169,0.0504 -0.054169,0.11192 0,0.0616 -0.019444,0.11192 -0.043209,0.11192 -0.087521,0 -0.1730045,1.02697 -0.1167544,1.40265 0.2222593,1.48441 1.7531778,2.67859 3.4371709,2.68116 0.5150555,7.9e-4 0.7118659,-0.0492 1.3440912,-0.34103 0.589348,-0.27208 0.874493,-0.32077 1.1176809,-0.19086 0.097823,0.0523 0.1567763,0.11368 0.131008,0.1365 -0.1937472,0.17156 -0.6388229,0.46805 -0.7627254,0.5081 -0.082953,0.0268 -0.3458318,0.12595 -0.5841741,0.22029 -0.4105481,0.1625 -0.4718277,0.1712 -1.1646276,0.16547 -0.4022028,-0.003 -0.8531573,-0.0292 -1.0021215,-0.0577 z"
       id="path4777"
       inkscape:connector-curvature="0" />
    <path
       style="fill:#00ffff;fill-opacity:0;stroke-width:0.05505718"
       d="m 5.3879048,296.98653 c -1.2165432,-0.23188 -2.1582599,-0.91827 -2.6792756,-1.95285 -0.2722235,-0.54054 -0.3794355,-1.0057 -0.3804562,-1.65064 -0.00309,-1.95363 1.3532955,-3.31768 3.5296903,-3.54965 1.0912824,-0.1163 1.9255589,0.11963 3.0495192,0.86239 l 0.3133406,0.20708 -0.1800939,0.19195 c -0.099051,0.10556 -0.1992148,0.19196 -0.2225848,0.19196 -0.023369,0 -0.1793727,-0.0905 -0.3466734,-0.20102 -0.9416822,-0.62231 -1.8010778,-0.87297 -2.6222637,-0.76482 -0.422489,0.0556 -1.1817878,0.26868 -1.2466487,0.34977 -0.014898,0.0186 -0.1367761,0.10024 -0.2708436,0.18134 -0.1340678,0.0811 -0.3673951,0.26877 -0.5185057,0.41701 -0.2764661,0.27122 -0.6732062,0.80941 -0.6732062,0.91321 0,0.0307 -0.024377,0.0558 -0.054169,0.0558 -0.029792,0 -0.054169,0.0504 -0.054169,0.11192 0,0.0616 -0.019444,0.11192 -0.043209,0.11192 -0.087521,0 -0.1730045,1.02697 -0.1167544,1.40265 0.2222593,1.48441 1.7531778,2.67859 3.4371709,2.68116 0.5150555,7.9e-4 0.7118659,-0.0492 1.3440912,-0.34103 0.589348,-0.27208 0.874493,-0.32077 1.1176809,-0.19086 0.097823,0.0523 0.1567763,0.11368 0.131008,0.1365 -0.1937472,0.17156 -0.6388229,0.46805 -0.7627254,0.5081 -0.082953,0.0268 -0.3458318,0.12595 -0.5841741,0.22029 -0.4105481,0.1625 -0.4718277,0.1712 -1.1646276,0.16547 -0.4022028,-0.003 -0.8531573,-0.0292 -1.0021215,-0.0577 z"
       id="path4779"
       inkscape:connector-curvature="0" />
    <path
       style="fill:#00ffff;fill-opacity:0;stroke-width:0.05505718"
       d="m 5.3879048,296.98653 c -1.2165432,-0.23188 -2.1582599,-0.91827 -2.6792756,-1.95285 -0.2722235,-0.54054 -0.3794355,-1.0057 -0.3804562,-1.65064 -0.00309,-1.95363 1.3532955,-3.31768 3.5296903,-3.54965 1.0912824,-0.1163 1.9255589,0.11963 3.0495192,0.86239 l 0.3133406,0.20708 -0.1800939,0.19195 c -0.099051,0.10556 -0.1992148,0.19196 -0.2225848,0.19196 -0.023369,0 -0.1793727,-0.0905 -0.3466734,-0.20102 -0.9416822,-0.62231 -1.8010778,-0.87297 -2.6222637,-0.76482 -0.422489,0.0556 -1.1817878,0.26868 -1.2466487,0.34977 -0.014898,0.0186 -0.1367761,0.10024 -0.2708436,0.18134 -0.1340678,0.0811 -0.3673951,0.26877 -0.5185057,0.41701 -0.2764661,0.27122 -0.6732062,0.80941 -0.6732062,0.91321 0,0.0307 -0.024377,0.0558 -0.054169,0.0558 -0.029792,0 -0.054169,0.0504 -0.054169,0.11192 0,0.0616 -0.019444,0.11192 -0.043209,0.11192 -0.087521,0 -0.1730045,1.02697 -0.1167544,1.40265 0.2222593,1.48441 1.7531778,2.67859 3.4371709,2.68116 0.5150555,7.9e-4 0.7118659,-0.0492 1.3440912,-0.34103 0.589348,-0.27208 0.874493,-0.32077 1.1176809,-0.19086 0.097823,0.0523 0.1567763,0.11368 0.131008,0.1365 -0.1937472,0.17156 -0.6388229,0.46805 -0.7627254,0.5081 -0.082953,0.0268 -0.3458318,0.12595 -0.5841741,0.22029 -0.4105481,0.1625 -0.4718277,0.1712 -1.1646276,0.16547 -0.4022028,-0.003 -0.8531573,-0.0292 -1.0021215,-0.0577 z"
       id="path4781"
       inkscape:connector-curvature="0" />
  </g>
</svg>
